<svg id="Camada_1" data-name="Camada 1" xmlns="http://www.w3.org/2000/svg" xmlns:xlink="http://www.w3.org/1999/xlink" viewBox="0 0 1080 1080"><defs><style>.cls-1{fill:url(#Gradiente_sem_nome_9);}.cls-2{fill:url(#Gradiente_sem_nome_36);}.cls-3{fill:url(#Gradiente_sem_nome_36-2);}.cls-4{fill:url(#Gradiente_sem_nome_36-3);}.cls-5{fill:url(#Gradiente_sem_nome_9-2);}.cls-6{fill:url(#Gradiente_sem_nome_36-4);}</style><linearGradient id="Gradiente_sem_nome_9" x1="850.27" y1="1077.98" x2="243.73" y2="471.44" gradientUnits="userSpaceOnUse"><stop offset="0" stop-color="#80d0c7"/><stop offset="1" stop-color="#0093e9"/></linearGradient><linearGradient id="Gradiente_sem_nome_36" x1="461.73" y1="781.96" x2="632.27" y2="781.96" gradientUnits="userSpaceOnUse"><stop offset="0" stop-color="#ca0648"/><stop offset="1" stop-color="#e7475c"/></linearGradient><linearGradient id="Gradiente_sem_nome_36-2" x1="239.72" y1="153.94" x2="552.64" y2="153.94" xlink:href="#Gradiente_sem_nome_36"/><linearGradient id="Gradiente_sem_nome_36-3" x1="541.36" y1="155.01" x2="854.28" y2="155.01" xlink:href="#Gradiente_sem_nome_36"/><linearGradient id="Gradiente_sem_nome_9-2" x1="110" y1="409.44" x2="984" y2="409.44" gradientTransform="translate(1094 818.88) rotate(180)" xlink:href="#Gradiente_sem_nome_9"/><linearGradient id="Gradiente_sem_nome_36-4" x1="657.01" y1="519.38" x2="436.99" y2="299.35" xlink:href="#Gradiente_sem_nome_36"/></defs><title>Present</title><g id="Present_Bottom" data-name="Present Bottom"><path class="cls-1" d="M159,556.15V982.92a25,25,0,0,0,25,25H910a25,25,0,0,0,25-25V556.15Z"/><rect class="cls-2" x="461.73" y="556" width="170.54" height="451.92"/></g><g id="Present_Top" data-name="Present Top"><path class="cls-3" d="M342.73,149.62C371,94.25,552.6,255.35,552.64,255.39c-24.44-45.2-193.93-330.67-294.12-154.8C150.67,289.9,542,262.6,542,262.6S315,204,342.73,149.62Z"/><path class="cls-4" d="M751.27,150.68C723.05,95.31,541.4,256.41,541.36,256.46c24.44-45.2,193.93-330.67,294.12-154.81C943.33,291,552,263.66,552,263.66S779,205,751.27,150.68Z"/><rect class="cls-5" x="110" y="292.73" width="874" height="233.42" rx="25"/><rect class="cls-6" x="443.61" y="292.73" width="206.78" height="233.27"/></g></svg>