<svg xmlns="http://www.w3.org/2000/svg" viewBox="0 0 500 500"><g id="freepik--background-simple--inject-185"><path d="M160.65,80.26C191,69,211.68,91.06,226.51,115c10.19,16.44,20.48,35.24,38.13,44.84,20.5,11.15,45.22.8,66.14-3.37,25.08-5,48.29,2.82,64.21,23.55,34.87,45.37,13.18,118-32,148a126.17,126.17,0,0,1-12.37,7.21c-62,31.61-151.52,32.44-198.47-25.72a115,115,0,0,1-9.29-13.36c-6-10.07-10.36-21.13-13.95-32.25-11.21-34.78-18.7-72.61-15.51-109.28C116,124.67,132,90.91,160.65,80.26Z" style="fill:#CA0648"></path><path d="M160.65,80.26C191,69,211.68,91.06,226.51,115c10.19,16.44,20.48,35.24,38.13,44.84,20.5,11.15,45.22.8,66.14-3.37,25.08-5,48.29,2.82,64.21,23.55,34.87,45.37,13.18,118-32,148a126.17,126.17,0,0,1-12.37,7.21c-62,31.61-151.52,32.44-198.47-25.72a115,115,0,0,1-9.29-13.36c-6-10.07-10.36-21.13-13.95-32.25-11.21-34.78-18.7-72.61-15.51-109.28C116,124.67,132,90.91,160.65,80.26Z" style="fill:#fff;opacity:0.9;isolation:isolate"></path></g><g id="freepik--character-1--inject-185"><path d="M215,164.46l.5-7.54s-1.8-2.21-1.67-3.5,3.24-8.44,4.28-8.68,6.2,2.91,6.13,4.57-3.64,7.44-4.19,7.86l-.05,8.06Z" style="fill:#e4897b"></path><path d="M147,140.93c-4.56,1.28-6.92,9.59-4.75,25.09s-3.83,36.08-3.83,36.08,24.91,7.75,40.58-2.17-6.67-29.58-6.67-29.58,9.09,6.17,12.17,14.5a8.07,8.07,0,0,0,.5-4.58,29.85,29.85,0,0,0-8.5-10.42c-6.17-4.92-1-16.5-5.33-22.75S164.58,136,147,140.93Z" style="fill:#263238"></path><path d="M172.25,156.43s-.5,9,2.67,11.17,9.75,3.92,11.91,8.08" style="fill:none;stroke:#263238;stroke-linecap:round;stroke-linejoin:round;stroke-width:0.488465px"></path><path d="M176.84,178.14c9.16.68,27.16,15.15,32.16,16.15S214.67,160,214.67,160H222s-1.33,38.73-6.67,43-39.39-8.68-39.39-8.68Z" style="fill:#CA0648"></path><path d="M222,160s-1.33,38.73-6.67,43c-3.48,2.8-19.21-1.78-29.71-5.27-3.89-1.3-7.06-2.46-8.62-3l-1.06-.4.91-16.18c9.15.67,27.15,15.15,32.15,16.15S214.67,160,214.67,160Z" style="opacity:0.30000000000000004;isolation:isolate"></path><polygon points="214 159 222 159 222.88 162 214 162 214 159" style="fill:#CA0648"></polygon><path d="M185.62,197.73c-3.89-1.3-7.06-2.45-8.62-3v-7.16S183.29,191.9,185.62,197.73Z" style="opacity:0.2;isolation:isolate"></path><path d="M167.12,366.7c-6.38,8-12.12,15.3-17.12,20.6h0c-5,5.37-7.58,8.7-7.58,8.7l-4.94-2.84s4.57-7.23,10.77-17.2c5.27-8.46,11.72-18.9,17.58-28.57,7.58-12.5,14.17-23.71,15.91-27.72,1.24-2.85-2.12-13.8-5.83-24.12-3.77-10.51-7.91-20.38-7.91-20.38l13.49-22.85s5.49,15.21,10.37,31.26c3.21,10.5,6.13,21.37,7.12,28.59C200.36,322.26,183,346.77,167.12,366.7Z" style="fill:#e4897b"></path><path d="M167.16,366.7c-6.38,8-12.51,15.3-17.07,20.6-.65-3.26-1.31-7.12-1.83-11.33,5.27-8.46,11.72-18.9,17.58-28.57A110.64,110.64,0,0,0,167.16,366.7Z" style="opacity:0.2;isolation:isolate"></path><path d="M191.86,283.59l-16,12c-3.77-10.51-7.91-20.38-7.91-20.38l13.49-22.85S187,267.54,191.86,283.59Z" style="opacity:0.2;isolation:isolate"></path><path d="M164,407.68l-5.75.75s-8.25-40.61-8-74.12a285.79,285.79,0,0,1-7.16-33.73c-2-13.72-3-29-.34-40.4l20,9,.41,30,.34,25Z" style="fill:#e4897b"></path><path d="M163.16,299.18l-20.07,1.4c-2-13.72-3-29-.34-40.4l20,9Z" style="opacity:0.2;isolation:isolate"></path><path d="M137.81,390c.59-.43,5.57,7,5.57,7s-1.11,7.77,1.14,12.79-2.12,4.59-5.75-.16l-9-11.76C127.21,394.55,131.7,394.46,137.81,390Z" style="fill:#263238"></path><path d="M145.07,402.68c-1.14-.27-1.87-3.49-2-4.13v-.1h0l0-.07h0l0-.06h0l.08-.05c.11,0,2.21-.7,3.35,0a1.4,1.4,0,0,1,.68.94c.09.44,0,.75-.25.92s-1.15.05-1.9-.29a3.7,3.7,0,0,1,1.05,1.72,1,1,0,0,1-.2.75.91.91,0,0,1-.72.43Zm.1-.46c.05,0,.19,0,.41-.24a.49.49,0,0,0,.1-.39c-.1-.74-1.21-1.82-2-2.48C144,400.49,144.64,402.09,145.17,402.22Zm-1.3-3.63c1.21.75,2.54,1.34,2.87,1.11.1-.07.07-.3,0-.43a.89.89,0,0,0-.45-.63,2.18,2.18,0,0,0-1.08-.23A6.08,6.08,0,0,0,143.87,398.59Z" style="fill:#CA0648"></path><path d="M156.21,404.8c0-.73,9-.18,9-.18s5.5,5.63,10.85,6.89,2.36,4.49-3.62,4.49H157.63C153.38,416,156,412.35,156.21,404.8Z" style="fill:#263238"></path><path d="M166.18,405.76l-.08-.05h0l0-.06h0s0-.05,0-.07h0a.29.29,0,0,1,0-.09c0-.11.79-2.18,2-2.68a1.38,1.38,0,0,1,1.16,0c.41.19.61.44.59.75,0,.47-.66.94-1.39,1.33a3.75,3.75,0,0,1,2,.22,1,1,0,0,1,.47.61.85.85,0,0,1-.21.95,1.28,1.28,0,0,1-.79.22A11.08,11.08,0,0,1,166.18,405.76Zm.82-.15c1.32.56,2.95,1.05,3.38.71,0,0,.15-.13.06-.48a.52.52,0,0,0-.26-.31,2.28,2.28,0,0,0-1.06-.2A10.33,10.33,0,0,0,167,405.61Zm1.24-2.39a3.85,3.85,0,0,0-1.54,1.93c1.33-.51,2.61-1.2,2.63-1.61,0-.12-.2-.24-.32-.29a.92.92,0,0,0-.77,0Z" style="fill:#CA0648"></path><path d="M172,289.93l21.63-11.33c-6.8-20.68-12.94-32.4-12.94-32.4-21.26,3.64-19.32,20.45-19.32,20.45S166.83,277.86,172,289.93Z" style="fill:#CA0648"></path><path d="M170.65,286.74c.46,1.05.93,2.12,1.39,3.19l21.63-11.33c-6.8-20.67-12.94-32.4-12.94-32.4-13.12,2.26-17.4,9.52-18.76,14.74a17.31,17.31,0,0,0-.56,5.71S165.9,276,170.65,286.74Z" style="fill:#fff;opacity:0.6000000000000001;isolation:isolate"></path><path d="M170.65,286.74c-4.75-10.78-9.24-20.09-9.24-20.09a17.31,17.31,0,0,1,.56-5.71,6.83,6.83,0,0,1,2.22-.93S170,269.08,170.65,286.74Z" style="opacity:0.2;isolation:isolate"></path><path d="M165.34,294.6,164.6,260l17.14-5s-1.35-15.87-3.35-23.7c0,0-27.84-6.93-32.09,2.51,0,0,0,.15-.06.2l-.06.09s-8,14.07-5.62,60.49Z" style="fill:#CA0648"></path><path d="M165.34,294.6,164.6,260l17.14-5s-1.35-15.87-3.35-23.7c0,0-27.84-6.93-32.09,2.51,0,0,0,.15-.06.2l-.06.09s-8,14.07-5.62,60.49Z" style="fill:#fff;opacity:0.6000000000000001;isolation:isolate"></path><polygon points="146 229.03 146 233.75 178 231.28 178 225.7 146 229.03" style="fill:#263238"></polygon><rect x="155.45" y="227.08" width="1.6" height="8.16" transform="matrix(1, -0.05, 0.05, 1, -11.58, 8.26)" style="fill:#CA0648"></rect><rect x="163.98" y="227.15" width="7.08" height="5.37" transform="translate(-19.83 15.86) rotate(-5.12)" style="fill:#fff"></rect><rect x="175.14" y="224.92" width="1.6" height="8.16" transform="translate(-11.44 9.27) rotate(-2.92)" style="fill:#CA0648"></rect><rect x="155.45" y="227.08" width="1.6" height="8.16" transform="matrix(1, -0.05, 0.05, 1, -11.58, 8.26)" style="fill:#fff;opacity:0.6000000000000001;isolation:isolate"></rect><rect x="175.14" y="224.92" width="1.6" height="8.16" transform="translate(-11.44 9.27) rotate(-2.92)" style="fill:#fff;opacity:0.6000000000000001;isolation:isolate"></rect><path d="M178.39,226.26l-32.24,2.79c-.77-12-1.53-19.72-8.63-41.08q-.92-2.81-2-5.95a95.86,95.86,0,0,1,13.38-3.23,103.35,103.35,0,0,1,14.48-1.53c6.27,0,13.47.66,13.47.66s1,.25,1.68,6.9C179.11,191.06,179.69,203.55,178.39,226.26Z" style="fill:#CA0648"></path><path d="M178.39,226.26l-32.24,2.79a115.88,115.88,0,0,0-3.6-24.37c-.83-3.22-1.87-6.84-3.19-11-.56-1.78-1.17-3.66-1.84-5.67s-1.28-3.86-2-5.95a95.86,95.86,0,0,1,13.38-3.23,103.35,103.35,0,0,1,14.48-1.53c6.27,0,13.48.66,13.48.66s1,.25,1.67,6.89C179.11,191.06,179.69,203.55,178.39,226.26Z" style="opacity:0.30000000000000004;isolation:isolate"></path><polygon points="138.5 293.18 166.75 292.93 166.25 297.18 139.75 296.93 138.5 293.18" style="fill:#CA0648"></polygon><polygon points="170.25 289.68 193.75 276.93 195 280.68 172.25 291.93 170.25 289.68" style="fill:#CA0648"></polygon><path d="M156.88,177.7s-8.88-.35-8.38,4.19,22.15,17.71,22.15,17.71S169.69,175.67,156.88,177.7Z" style="fill:none;stroke:#CA0648;stroke-miterlimit:10"></path><path d="M160.71,184.39c-8-1-10.34-4.42-10.34-4.42,3.25-3.06,2.66-7.58,1.83-10.4a16.16,16.16,0,0,0-1-2.6l9.57,1.79a27.54,27.54,0,0,0-.37,4,12.07,12.07,0,0,0,.27,3c.65,2.86,2.28,2.9,2.28,2.9C164.65,181.79,160.71,184.39,160.71,184.39Z" style="fill:#e4897b"></path><path d="M160.42,172.79a12.07,12.07,0,0,0,.27,3c-3.8-.5-6.68-3.54-8.49-6.18a16.16,16.16,0,0,0-1-2.6l9.57,1.79A27.54,27.54,0,0,0,160.42,172.79Z" style="opacity:0.2;isolation:isolate"></path><path d="M158.84,142.27c8.32.3,10.84,4.86,11.13,13.46.36,10.74-2.3,18.27-12.62,15.59C143.34,167.69,145,141.75,158.84,142.27Z" style="fill:#e4897b"></path><path d="M164.6,155.06a17.68,17.68,0,0,0,2.3,3.54,2.29,2.29,0,0,1-2.23.86Z" style="fill:#de5753"></path><path d="M159.54,154.19c0,.69-.39,1.24-.85,1.23s-.81-.57-.81-1.25.39-1.23.85-1.23S159.55,153.51,159.54,154.19Z" style="fill:#263238"></path><path d="M158.54,153l1.49-.56S159.27,153.65,158.54,153Z" style="fill:#263238"></path><path d="M168,154.17c0,.68-.38,1.23-.84,1.22s-.82-.56-.81-1.25.39-1.23.84-1.22S168.05,153.48,168,154.17Z" style="fill:#263238"></path><path d="M167,153l1.5-.57S167.78,153.63,167,153Z" style="fill:#263238"></path><path d="M159.67,148.44a4.34,4.34,0,0,0-3.66,1.13" style="fill:none;stroke:#263238;stroke-linecap:round;stroke-linejoin:round;stroke-width:0.707962px"></path><path d="M165.73,148.32a3.89,3.89,0,0,1,3.29.8" style="fill:none;stroke:#263238;stroke-linecap:round;stroke-linejoin:round;stroke-width:0.707962px"></path><path d="M163.33,162.69a22,22,0,0,0-1.07,2.86l-.54-.07c-2.41-.34-3.42-1.29-3.81-2.24a3.18,3.18,0,0,1-.18-1.48,2.82,2.82,0,0,1,.19-.83,11.47,11.47,0,0,0,4.59,1.64C163,162.66,163.33,162.69,163.33,162.69Z" style="fill:#263238"></path><path d="M162.51,162.57l-.34.83c-2.27-.32-3.82-.85-4.44-1.64a2.82,2.82,0,0,1,.19-.83A11.47,11.47,0,0,0,162.51,162.57Z" style="fill:#fff"></path><path d="M161.72,165.48c-2.41-.34-3.42-1.29-3.81-2.24a7.73,7.73,0,0,1,2.61.9A2.85,2.85,0,0,1,161.72,165.48Z" style="fill:#de5753"></path><path d="M149.23,156s4.14-6.69,3.75-12c0,0,16.74-6.13,16.93,10.64,0,0,2.16-14.8-12.13-15.66s-15,20.07-7.85,26.58C149.93,165.52,146.66,160.14,149.23,156Z" style="fill:#263238"></path><path d="M150.52,157.76a3.66,3.66,0,0,0-3.81-3.48c-2.59.18-4,5.43,2.36,6.94C150,161.44,150.53,160.56,150.52,157.76Z" style="fill:#e4897b"></path><path d="M154.17,136.77c4.5-1.25,16.5-1.42,19.33,11l-1.67.83a26.56,26.56,0,0,0-9-2.67,20.78,20.78,0,0,0-2.33-3.33,18.23,18.23,0,0,1,0,3.17s-7.83,1.14-11.33,4.33c-5.5,5-5.84,8.17-5.84,8.17S139.52,140.83,154.17,136.77Z" style="fill:#263238"></path><path d="M153.5,137.68s16.08-5.58,21.17,9.67" style="fill:none;stroke:#263238;stroke-linecap:round;stroke-linejoin:round;stroke-width:0.488465px"></path><circle cx="172.22" cy="201.2" r="2.65" style="fill:#fff"></circle><path d="M142.55,204.68c-.83-3.22-1.87-6.84-3.19-11l1.36-2.84S144.25,199.07,142.55,204.68Z" style="opacity:0.2;isolation:isolate"></path><path d="M93.75,164.9l-2.77-7s1-2.65.52-3.84-5.64-7.05-6.71-7-5,4.66-4.45,6.22,5.73,6,6.38,6.21l2.5,7.67Z" style="fill:#e4897b"></path><path d="M135.51,182c-4.26,1.16-21,17.41-23.76,17.41S93.5,162.16,93.5,162.16l-5.25,3.32s10.75,41.7,17.25,45.2,35.32-12.24,35.32-12.24.43-8.08-.82-11.8A7.24,7.24,0,0,0,135.51,182Z" style="fill:#CA0648"></path><path d="M135.51,182c-4.26,1.16-21,17.41-23.76,17.41S93.5,162.16,93.5,162.16l-5.25,3.32s10.75,41.7,17.25,45.2,35.32-12.24,35.32-12.24.43-8.08-.82-11.8A7.24,7.24,0,0,0,135.51,182Z" style="opacity:0.30000000000000004;isolation:isolate"></path><polygon points="87.02 165.23 93.75 160.93 95.49 163.4 88.25 167.93 87.02 165.23" style="fill:#CA0648"></polygon></g><g id="freepik--character-2--inject-185"><g id="freepik--group--inject-185"><path d="M322.33,155.45s-26,24.53-38,28.63-42.85,19.29-42.85,19.29l-4.73-3.73c0-.21-3.45,2.46-3.49,4.31,0,1.34,3.39,12.57,4.1,12.56,3.3,0,7-7.56,7-7.56s39.5-10.29,46.58-13.39,36.26-25.86,36.26-25.86Z" style="fill:#b97964"></path><path d="M328.09,149.57c-7.59,1.88-17.34,15.18-17.34,15.18l7,12.43L329.08,173Z" style="fill:#CA0648"></path><path d="M329.08,173l-10,3.73-1.33.5-7-12.42s9.75-13.31,17.34-15.2l.46,10.85Z" style="fill:#fff;opacity:0.6000000000000001"></path><polygon points="310.75 162.46 319 177.18 316.17 179.25 309.4 164.6 310.75 162.46" style="fill:#CA0648"></polygon><path d="M329.08,173l-10,3.73c.92-8.08,7.54-14.53,9.47-16.27Z" style="opacity:0.2;isolation:isolate"></path><polygon points="329.46 408.32 321.09 409.2 319.52 391.15 327.89 390.27 329.46 408.32" style="fill:#b97964"></polygon><polygon points="371.21 407.71 363.1 407.71 362.43 388.93 370.55 388.93 371.21 407.71" style="fill:#b97964"></polygon><path d="M362,406.77h9.85a.71.71,0,0,1,.69.56l1.6,7.22a1.19,1.19,0,0,1-.92,1.41,1.24,1.24,0,0,1-.27,0c-3.18-.05-5.5-.25-9.51-.25-2.46,0-9.9.26-13.3.26s-3.85-3.36-2.46-3.67c6.25-1.36,11-3.25,13-5.05A2,2,0,0,1,362,406.77Z" style="fill:#263238"></path><path d="M359.3,408.19a2.41,2.41,0,0,1-1.56-.41,1.13,1.13,0,0,1-.4-1,.57.57,0,0,1,.33-.54c.9-.46,3.52,1.15,3.8,1.33a.19.19,0,0,1,.1.19.19.19,0,0,1-.15.16A9.51,9.51,0,0,1,359.3,408.19Zm-1.21-1.68a.45.45,0,0,0-.25.05s-.11.07-.12.23a.78.78,0,0,0,.26.69,4,4,0,0,0,2.89.14A8,8,0,0,0,358.09,406.51Z" style="fill:#CA0648"></path><path d="M361.37,407.9h-.09c-.84-.45-2.46-2.23-2.29-3.09a.63.63,0,0,1,.62-.51,1,1,0,0,1,.81.25c.94.76,1.14,3.1,1.15,3.21a.13.13,0,0,1-.2.14Zm-1.63-3.29h-.09c-.25,0-.27.15-.28.2-.1.52.93,1.88,1.76,2.51a4.52,4.52,0,0,0-1-2.54A.63.63,0,0,0,359.74,404.61Z" style="fill:#CA0648"></path><path d="M320.21,406.51h9.85a.71.71,0,0,1,.69.56l1.6,7.22a1.21,1.21,0,0,1-.93,1.42l-.26,0c-3.19-.05-5.51-.25-9.51-.25-2.46,0-9.9.26-13.3.26s-3.85-3.36-2.46-3.67c6.25-1.36,10.95-3.25,13-5A2,2,0,0,1,320.21,406.51Z" style="fill:#263238"></path><path d="M317.52,407.93a2.36,2.36,0,0,1-1.55-.41,1.1,1.1,0,0,1-.4-1,.57.57,0,0,1,.33-.54c.89-.46,3.51,1.15,3.8,1.33a.17.17,0,0,1,.09.19.2.2,0,0,1-.14.17A10.21,10.21,0,0,1,317.52,407.93Zm-1.2-1.68a.53.53,0,0,0-.25.05c-.05,0-.11.08-.12.23a.77.77,0,0,0,.25.69,4,4,0,0,0,2.89.15A7.7,7.7,0,0,0,316.32,406.25Z" style="fill:#CA0648"></path><path d="M319.6,407.65h-.09c-.84-.46-2.46-2.24-2.29-3.1a.6.6,0,0,1,.61-.5,1,1,0,0,1,.82.24c.94.77,1.13,3.1,1.14,3.21a.19.19,0,0,1-.09.18A.17.17,0,0,1,319.6,407.65ZM318,404.36h-.09c-.25,0-.27.14-.28.19-.11.53.93,1.88,1.76,2.51a4.52,4.52,0,0,0-1-2.54A.62.62,0,0,0,318,404.36Z" style="fill:#CA0648"></path><polygon points="327.89 390.27 319.52 391.15 320.34 400.46 328.71 399.58 327.89 390.27" style="opacity:0.2;isolation:isolate"></polygon><polygon points="370.55 388.94 362.43 388.94 362.78 398.62 370.9 398.62 370.55 388.94" style="opacity:0.2;isolation:isolate"></polygon><path d="M367.2,224.18h-43c-4.09,22.34-16.9,101.41-7.71,171.86l14.57-1.8s-1.35-93.53,11.51-128.11c1.48,18.51,3.24,38.2,4.76,48.67,3.75,25.79,11.76,82.14,11.76,82.14h14.83s-3-53.94-4.43-79.28C367.92,290.15,367.26,229.83,367.2,224.18Z" style="fill:#CA0648"></path><path d="M342.54,266.07a114.85,114.85,0,0,0-4.81,18.62c-1.2-16.47,3.61-33.94,3.61-33.94Z" style="opacity:0.2;isolation:isolate"></path><polygon points="314.79 399.44 332.82 396.75 332.27 391.76 313.51 394.22 314.79 399.44" style="fill:#CA0648"></polygon><polygon points="314.79 399.44 332.82 396.75 332.27 391.76 313.51 394.22 314.79 399.44" style="fill:#fff;opacity:0.6000000000000001;isolation:isolate"></polygon><polygon points="357.28 397.06 374.77 397.06 374.77 391.83 356.62 391.49 357.28 397.06" style="fill:#CA0648"></polygon><polygon points="357.28 397.06 374.77 397.06 374.77 391.83 356.62 391.49 357.28 397.06" style="fill:#fff;opacity:0.6000000000000001;isolation:isolate"></polygon><path d="M328.09,149.57s27.38-1.34,47.77,3.81c0,0-6.95,62.32-6.61,88.32L319,240S321,176.18,328.09,149.57Z" style="fill:#CA0648"></path><path d="M375.86,153.39s-.81,7.26-1.87,17.88-2.37,24.76-3.33,38.21c-.9,12.29-1.52,24.05-1.41,32.22L319,240s2-63.77,9.09-90.39C328.09,149.56,355.47,148.23,375.86,153.39Z" style="fill:#fff;opacity:0.6000000000000001"></path><polygon points="235.47 188.5 235.69 188.49 235.67 188.46 235.7 188.46 235.69 188.39 235.47 188.5" style="fill:#263238"></polygon><polygon points="320.4 176.95 319.62 177 263.33 177 236.16 188 235.7 188 240.67 240 294.19 240 324.21 227.97 320.4 176.95" style="fill:#263238"></polygon><polygon points="242.22 192.08 244.4 194.1 247.3 193.45 246.05 196.14 247.57 198.7 244.62 198.35 242.66 200.58 242.08 197.67 239.35 196.49 241.94 195.04 242.22 192.08" style="fill:#fff;opacity:0.2"></polygon><polygon points="272.7 196.36 272.5 199.33 274.82 201.17 271.94 201.9 270.91 204.68 269.33 202.16 266.36 202.04 268.27 199.76 267.47 196.9 270.22 198.01 272.7 196.36" style="fill:#fff;opacity:0.2"></polygon><polygon points="271.7 228.36 271.5 231.33 273.82 233.17 270.94 233.9 269.91 236.68 268.33 234.16 265.36 234.04 267.27 231.76 266.47 228.9 269.22 230.01 271.7 228.36" style="fill:#fff;opacity:0.2"></polygon><polygon points="258.7 220.36 258.5 223.33 260.82 225.17 257.94 225.9 256.91 228.68 255.33 226.16 252.36 226.04 254.27 223.76 253.47 220.9 256.22 222.01 258.7 220.36" style="fill:#fff;opacity:0.2"></polygon><polygon points="273.49 219.38 273.37 221.11 274.74 222.19 273.05 222.62 272.44 224.25 271.52 222.78 269.78 222.7 270.9 221.37 270.43 219.69 272.04 220.34 273.49 219.38" style="fill:#fff;opacity:0.2"></polygon><polygon points="248.49 231.38 248.37 233.11 249.74 234.19 248.05 234.62 247.44 236.25 246.52 234.78 244.78 234.7 245.9 233.37 245.43 231.69 247.04 232.34 248.49 231.38" style="fill:#fff;opacity:0.2"></polygon><polygon points="246.49 214.38 246.37 216.11 247.74 217.19 246.05 217.62 245.44 219.25 244.52 217.78 242.78 217.7 243.9 216.37 243.43 214.69 245.04 215.34 246.49 214.38" style="fill:#fff;opacity:0.2"></polygon><polygon points="283.49 189.38 283.37 191.11 284.74 192.19 283.05 192.62 282.44 194.25 281.52 192.78 279.78 192.7 280.9 191.37 280.43 189.69 282.04 190.34 283.49 189.38" style="fill:#fff;opacity:0.2"></polygon><polygon points="252.04 201.2 253.78 204.73 257.67 205.29 254.85 208.03 255.52 211.91 252.04 210.08 248.56 211.91 249.23 208.03 246.41 205.29 250.3 204.73 252.04 201.2" style="fill:#fff;opacity:0.2"></polygon><polygon points="277.71 208.37 281.26 210.04 284.66 208.06 284.16 211.96 287.09 214.58 283.23 215.31 281.65 218.91 279.76 215.46 275.85 215.07 278.54 212.21 277.71 208.37" style="fill:#fff;opacity:0.2"></polygon><polygon points="285.04 225.2 286.78 228.73 290.67 229.29 287.85 232.03 288.52 235.91 285.04 234.08 281.56 235.91 282.23 232.03 279.41 229.29 283.3 228.73 285.04 225.2" style="fill:#fff;opacity:0.2"></polygon><polygon points="294.77 190.3 296.01 192.03 297.46 191.01 296.98 193.86 297.91 196.22 296.38 196.25 295.5 198.72 295.03 195.89 293.56 195.06 294.81 193.29 294.77 190.3" style="fill:#fff;opacity:0.2"></polygon><polygon points="310.69 190.69 310.76 193.67 312.07 195.22 310.63 196.31 310.26 199.22 309.3 196.91 307.77 197.16 308.61 194.65 308.03 191.89 309.51 192.65 310.69 190.69" style="fill:#fff;opacity:0.2"></polygon><polygon points="312.07 222.76 312.14 225.74 313.45 227.29 312.01 228.38 311.65 231.29 310.69 228.98 309.15 229.24 310 226.72 309.42 223.96 310.9 224.72 312.07 222.76" style="fill:#fff;opacity:0.2"></polygon><polygon points="304.92 216.43 304.99 219.41 306.3 220.96 304.86 222.05 304.49 224.96 303.53 222.65 302 222.9 302.84 220.39 302.26 217.63 303.74 218.38 304.92 216.43" style="fill:#fff;opacity:0.2"></polygon><polygon points="312.46 213.56 312.5 215.31 313.27 216.21 312.43 216.85 312.21 218.56 311.65 217.21 310.75 217.35 311.25 215.88 310.9 214.27 311.77 214.71 312.46 213.56" style="fill:#fff;opacity:0.2"></polygon><polygon points="300.33 228.72 300.37 230.47 301.13 231.38 300.29 232.02 300.08 233.72 299.51 232.37 298.62 232.52 299.11 231.04 298.77 229.43 299.64 229.87 300.33 228.72" style="fill:#fff;opacity:0.2"></polygon><polygon points="298.29 212.01 298.33 213.76 299.1 214.66 298.26 215.3 298.04 217 297.48 215.65 296.58 215.8 297.07 214.33 296.73 212.71 297.6 213.16 298.29 212.01" style="fill:#fff;opacity:0.2"></polygon><polygon points="315.82 182.34 315.86 184.09 316.63 184.99 315.79 185.63 315.57 187.34 315.01 185.99 314.11 186.13 314.6 184.66 314.26 183.05 315.13 183.49 315.82 182.34" style="fill:#fff;opacity:0.2"></polygon><polygon points="300.36 198.15 301.46 201.45 303.49 201.52 302.21 204.61 302.78 208.39 300.89 207.01 299.21 209.28 299.32 205.33 297.71 202.95 299.68 201.89 300.36 198.15" style="fill:#fff;opacity:0.2"></polygon><polygon points="313.98 202.03 315.9 203.25 317.53 200.85 317.5 204.8 319.17 207.04 317.23 208.26 316.63 212.05 315.45 208.86 313.42 208.96 314.63 205.76 313.98 202.03" style="fill:#fff;opacity:0.2"></polygon><polygon points="318.74 217.91 319.84 221.2 321.88 221.27 320.59 224.37 321.16 228.15 319.27 226.77 317.59 229.03 317.7 225.08 316.09 222.71 318.06 221.65 318.74 217.91" style="fill:#fff;opacity:0.2"></polygon><polygon points="289.19 188.15 320.4 177.18 324.21 228.38 294.19 240.6 289.19 188.15" style="opacity:0.2;isolation:isolate"></polygon><polygon points="235.47 188.2 263.33 177 320 177 289.19 187.81 235.47 188.2" style="fill:#fff;opacity:0.2"></polygon><polygon points="313.83 232.73 310.25 180 255 180 249.78 182.71 300.25 184.09 306.7 235.34 313.83 232.73" style="fill:#CA0648"></polygon><polygon points="290.83 177 264.92 187.75 268 240 260 240 254.5 187.91 283.5 177 290.83 177" style="fill:#CA0648"></polygon><g style="opacity:0.2"><polygon points="313.83 232.73 310.25 180 255 180 249.78 182.71 300.25 184.09 306.7 235.34 313.83 232.73" style="fill:#fff"></polygon><polygon points="290.83 177 264.92 187.75 268 240 260 240 254.5 187.91 283.5 177 290.83 177" style="fill:#fff"></polygon></g><polygon points="310.25 180.46 300.25 184.21 306.7 235.51 313.83 232.96 310.25 180.46" style="opacity:0.2;isolation:isolate"></polygon><polygon points="254.5 188.14 264.92 187.87 268 240 260 240 254.5 188.14" style="opacity:0.1;isolation:isolate"></polygon><path d="M274.28,181.09s-15-11.34-21.52-8.5c-5.15,2.24-4.4,8.95,8.63,10.66-4.89.44-10.68,1.22-14.14,2.54l9.83,1.16a113.11,113.11,0,0,1,18-3.37,7.63,7.63,0,0,1,0,3.37l6.73-.58s-2-1.89-3.6-3.28c7.71-.77,24.22-3.24,25.88-10.5C306.26,163.09,282.47,169.42,274.28,181.09Zm-21.52-6.59c1.58-2.5,20.58,7.42,20.58,7.42C264.42,183.17,251.17,177,252.76,174.5Zm23.23,7s20.35-14.58,25.27-11.33S282.14,182.09,276,181.5Z" style="fill:#CA0648"></path><path d="M274.28,181.09s-15-11.34-21.52-8.5c-5.15,2.24-4.4,8.95,8.63,10.66-4.89.44-10.68,1.22-14.14,2.54l9.83,1.16a113.11,113.11,0,0,1,18-3.37,7.63,7.63,0,0,1,0,3.37l6.73-.58s-2-1.89-3.6-3.28c7.71-.77,24.22-3.24,25.88-10.5C306.26,163.09,282.47,169.42,274.28,181.09Zm-21.52-6.59c1.58-2.5,20.58,7.42,20.58,7.42C264.42,183.17,251.17,177,252.76,174.5Zm23.23,7s20.35-14.58,25.27-11.33S282.14,182.09,276,181.5Z" style="fill:#fff;opacity:0.1"></path><path d="M374,171.27c-1.06,10.68-2.37,24.76-3.33,38.21-22.28-25.75-6.34-44.67-6.34-44.67Z" style="opacity:0.2;isolation:isolate"></path><path d="M339.38,149.41s-.21,5.71,7.29,6,17.55-4.28,17.55-4.28S349.92,148,339.38,149.41Z" style="fill:#CA0648"></path><path d="M360.3,150.62c-3.95,3.59-13.63,2.26-13.63,2.26s-6-1.65-4.77-3.54c3.56-.59,5.28-2.25,6-4.37a10.48,10.48,0,0,0,.36-4.07,19.44,19.44,0,0,0-.3-2.26l12-8.86C358.35,135.62,356.43,146.38,360.3,150.62Z" style="fill:#b97964"></path><path d="M357.15,135.41c-.47,7.18-6.37,9.16-9.26,9.56a10.48,10.48,0,0,0,.36-4.07Z" style="opacity:0.2;isolation:isolate"></path><path d="M336.51,112.72s-1.7,11.17,4.23,15.47,5.93-16.51,5.93-16.51Z" style="fill:#263238"></path><path d="M358,137.07A10.16,10.16,0,0,1,346.31,141a11.28,11.28,0,0,1-6.44-5.25,9.07,9.07,0,0,1-.54-1.08c-2.92-6.82-3.85-18.77,3.37-23.24a11,11,0,0,1,16.79,8.28C360.38,127.69,361.28,132.34,358,137.07Z" style="fill:#b97964"></path><path d="M347.86,124c.15.63-.14,1.22-.57,1.3s-.85-.4-1-1,.14-1.23.56-1.3S347.74,123.39,347.86,124Z" style="fill:#263238"></path><path d="M340.57,125.29c.15.63-.15,1.22-.57,1.29s-.85-.4-1-1,.15-1.22.56-1.29S340.46,124.68,340.57,125.29Z" style="fill:#263238"></path><path d="M342.94,125.21a23.26,23.26,0,0,1-2.14,6,3.81,3.81,0,0,0,3.2.05Z" style="fill:#a24e3f"></path><path d="M349.71,121.3a.41.41,0,0,1-.39-.09,3.09,3.09,0,0,0-2.64-.85.39.39,0,0,1-.46-.28.38.38,0,0,1,.28-.46h0a3.78,3.78,0,0,1,3.34,1,.38.38,0,0,1,0,.54h0A.57.57,0,0,1,349.71,121.3Z" style="fill:#263238"></path><path d="M345.61,134.46h0a5.91,5.91,0,0,0,4.78-2.6.21.21,0,0,0-.07-.28.2.2,0,0,0-.27.06h0a5.64,5.64,0,0,1-4.45,2.39.2.2,0,0,0-.19.2v0a.19.19,0,0,0,.19.2Z" style="fill:#263238"></path><path d="M337,123.31a.34.34,0,0,1-.22,0,.38.38,0,0,1-.27-.47h0a3.81,3.81,0,0,1,2.37-2.6.38.38,0,0,1,.47.26h0a.38.38,0,0,1-.25.47h0a3.11,3.11,0,0,0-1.84,2.09A.43.43,0,0,1,337,123.31Z" style="fill:#263238"></path><path d="M352,110.89v3.57a2.64,2.64,0,0,1,1.72,3.14c-.78,3.09,1.46,7.47,3.95,9,0,0-.08-1.29,1-1.12s1.64,6.88-.08,10.32c0,0,2.83-3.27,3.78-10.49.87-6.67.42-12.1-1.21-14.44Z" style="fill:#263238"></path><path d="M364.14,123.72a20.83,20.83,0,0,0-7.11-6.53c-4.79-2.75-12.15-4.66-22.53-1.41,0,0,3.75-18.15,20.08-12l.4.16C370.81,110.19,364.14,123.72,364.14,123.72Z" style="fill:#CA0648"></path><path d="M357,117.19c-4.79-2.75-12.15-4.66-22.53-1.41,0,0,3.75-18.15,20.08-12l.4.16a7,7,0,0,1,2.44,2.13C358.87,108.35,357.81,114,357,117.19Z" style="fill:#fff;opacity:0.2"></path><path d="M336.29,116.75c-2.19.44-9.41-4.61-6.54-6.9,2.31-1.84,8.79-2.38,13.88-1.21,9.43,2.18,13.54,8.48,13.54,8.48S345.12,113.25,336.29,116.75Z" style="fill:#CA0648"></path><path d="M336.29,116.75c-2.19.44-9.41-4.61-6.54-6.9,2.31-1.84,8.79-2.38,13.88-1.21,9.43,2.18,13.54,8.48,13.54,8.48S345.12,113.25,336.29,116.75Z" style="opacity:0.2;isolation:isolate"></path><path d="M364.06,125.68a7.62,7.62,0,0,1-3.67,4.54c-2.36,1.27-4.12-.7-4-3.24.16-2.25,1.56-5.69,4.18-5.89S364.73,123.29,364.06,125.68Z" style="fill:#b97964"></path><path d="M329.81,173l-2.68,18.7,5-.1-.65,8.54-4.84-.13-1.5,3.46,8.51.84,5.6-30.42ZM331,187.62l2.46-9.93,1.75.14-1.71,9.74Z" style="fill:#CA0648"></path><path d="M343,174l-2.69,18.47,5-.1-.64,8.77-4.84,0-1.5,3.53,8.51.86,5.6-30.52Zm1.23,14.39,2.46-9.71,1.75,0-1.71,9.62Z" style="fill:#CA0648"></path><path d="M376.62,176s-8.55,23.59-11.08,28.54-52.33,9.83-52.33,9.83-11,7.12-13,6.79-6.58-9.67-4.58-10.67,8.08-7.88,11.37-7.77,6.17,3.77,6.17,3.77,41-11.75,43.21-12.62c1.58-.63,8.06-23.47,8.06-23.47Z" style="fill:#b97964"></path><path d="M375.86,153.38c10.22,4.3,0,33.69,0,33.69l-15.56-6.62S365.4,149,375.86,153.38Z" style="fill:#CA0648"></path><path d="M375.86,153.38c10.22,4.3,0,33.69,0,33.69l-15.56-6.62S365.4,149,375.86,153.38Z" style="fill:#fff;opacity:0.6000000000000001"></path><polygon points="359.5 178.09 377.75 185.99 375.87 189.96 358.5 182.09 359.5 178.09" style="fill:#CA0648"></polygon></g></g></svg>