<svg id="Camada_1" data-name="Camada 1" xmlns="http://www.w3.org/2000/svg" viewBox="0 0 1080 1080"><defs><style>.cls-1{fill:#fff;}</style></defs><title>gift-white</title><path class="cls-1" d="M335.73,149.62C364,94.25,545.6,255.35,545.64,255.39c-24.44-45.2-193.93-330.67-294.12-154.8C143.67,289.9,535,262.6,535,262.6S308,204,335.73,149.62Z"/><path class="cls-1" d="M756.27,150.68C728.05,95.31,546.4,256.41,546.36,256.46c24.44-45.2,193.93-330.67,294.12-154.81C948.33,291,557,263.66,557,263.66S784,205,756.27,150.68Z"/><rect class="cls-1" x="470.3" y="556" width="153.4" height="451.92"/><rect class="cls-1" x="454" y="293" width="186" height="233"/><path class="cls-1" d="M423.61,526V292.73H135a25,25,0,0,0-25,25V501.15a25,25,0,0,0,25,25H423.61Z"/><path class="cls-1" d="M959,292.73H670.39V526.15H959a25,25,0,0,0,25-25V317.73A25,25,0,0,0,959,292.73Z"/><path class="cls-1" d="M441.73,1005.92V556.15H159V982.92a25,25,0,0,0,25,25h257.7Z"/><path class="cls-1" d="M652.27,556.15v451.77H910a25,25,0,0,0,25-25V556.15Z"/></svg>