<svg id="Camada_1" data-name="Camada 1" xmlns="http://www.w3.org/2000/svg" xmlns:xlink="http://www.w3.org/1999/xlink" viewBox="0 0 1080 1080"><defs><style>.cls-1{fill:#eee7d7;}.cls-2{fill:#f4ede6;}.cls-3{fill:url(#Gradiente_sem_nome_9);}.cls-4{fill:url(#Gradiente_sem_nome_36);}.cls-5{fill:url(#Gradiente_sem_nome_36-2);}.cls-6{fill:url(#Gradiente_sem_nome_36-3);}.cls-7{fill:url(#Gradiente_sem_nome_9-2);}.cls-8{fill:url(#Gradiente_sem_nome_36-4);}</style><linearGradient id="Gradiente_sem_nome_9" x1="983.83" y1="935.54" x2="531.53" y2="483.23" gradientUnits="userSpaceOnUse"><stop offset="0" stop-color="#80d0c7"/><stop offset="1" stop-color="#0093e9"/></linearGradient><linearGradient id="Gradiente_sem_nome_36" x1="694.09" y1="714.79" x2="821.27" y2="714.79" gradientUnits="userSpaceOnUse"><stop offset="0" stop-color="#ca0648"/><stop offset="1" stop-color="#e7475c"/></linearGradient><linearGradient id="Gradiente_sem_nome_36-2" x1="-7.73" y1="125" x2="225.61" y2="125" gradientTransform="matrix(0.3, -0.95, 0.95, 0.3, -25.47, 670.06)" xlink:href="#Gradiente_sem_nome_36"/><linearGradient id="Gradiente_sem_nome_36-3" x1="225.26" y1="125.79" x2="458.61" y2="125.79" gradientTransform="matrix(0.3, -0.95, 0.95, 0.3, -25.47, 670.06)" xlink:href="#Gradiente_sem_nome_36"/><linearGradient id="Gradiente_sem_nome_9-2" x1="543.25" y1="503.35" x2="1195.02" y2="503.35" gradientTransform="translate(1212.12 1053.57) rotate(180)" xlink:href="#Gradiente_sem_nome_9"/><linearGradient id="Gradiente_sem_nome_36-4" x1="306.9" y1="397.51" x2="142.83" y2="233.44" gradientTransform="translate(118.07 234.73)" xlink:href="#Gradiente_sem_nome_36"/></defs><title>gift-opened</title><polygon class="cls-1" points="911.99 195.77 519.32 195.77 519.32 587.28 996.05 587.28 996.05 275.22 911.99 195.77"/><polygon class="cls-2" points="911.99 195.77 911.99 276.37 996.05 275.22 911.99 195.77"/><g id="Bottom"><path class="cls-3" d="M468.36,546.4V864.65A18.65,18.65,0,0,0,487,883.29h541.35A18.65,18.65,0,0,0,1047,864.65V546.4Z"/><rect class="cls-4" x="694.09" y="546.29" width="127.17" height="337"/></g><g id="Top"><path class="cls-5" d="M111.41,640.7C78.34,608.23,233.58,515.06,233.62,515,196,522.31-45,579,57.7,689.63,168.24,808.71,236.38,524.19,236.38,524.19S143.88,672.58,111.41,640.7Z"/><path class="cls-6" d="M206,342.62c-45.71,7.69,28.26,173,28.28,173C207.59,488.12,42.44,303.68,190,271.75c158.8-34.36,51.81,237.94,51.81,237.94S250.87,335.07,206,342.62Z"/><rect class="cls-7" x="17.1" y="463.19" width="651.76" height="174.07" rx="18.64" transform="translate(-284.79 712.33) rotate(-72.54)"/><rect class="cls-8" x="265.83" y="463.23" width="154.2" height="173.96" transform="translate(-284.81 712.26) rotate(-72.54)"/></g></svg>